<svg width="44" height="44" viewBox="0 0 44 44" fill="none" xmlns="http://www.w3.org/2000/svg">
<g clip-path="url(#clip0_46_90)">
<path d="M7.33334 18.3333C7.33334 19.3058 7.71964 20.2384 8.40728 20.926C9.09491 21.6137 10.0275 22 11 22C11.9725 22 12.9051 21.6137 13.5927 20.926C14.2804 20.2384 14.6667 19.3058 14.6667 18.3333C14.6667 17.3608 14.2804 16.4282 13.5927 15.7406C12.9051 15.0529 11.9725 14.6666 11 14.6666C10.0275 14.6666 9.09491 15.0529 8.40728 15.7406C7.71964 16.4282 7.33334 17.3608 7.33334 18.3333Z" stroke="#000000" stroke-width="2" stroke-linecap="round" stroke-linejoin="round"/>
<path d="M11 7.33337V14.6667" stroke="#000000" stroke-width="2" stroke-linecap="round" stroke-linejoin="round"/>
<path d="M11 22V36.6667" stroke="#000000" stroke-width="2" stroke-linecap="round" stroke-linejoin="round"/>
<path d="M18.3333 29.3333C18.3333 30.3058 18.7196 31.2384 19.4073 31.926C20.0949 32.6137 21.0275 33 22 33C22.9725 33 23.9051 32.6137 24.5927 31.926C25.2804 31.2384 25.6667 30.3058 25.6667 29.3333C25.6667 28.3608 25.2804 27.4282 24.5927 26.7406C23.9051 26.0529 22.9725 25.6666 22 25.6666C21.0275 25.6666 20.0949 26.0529 19.4073 26.7406C18.7196 27.4282 18.3333 28.3608 18.3333 29.3333Z" stroke="#000000" stroke-width="2" stroke-linecap="round" stroke-linejoin="round"/>
<path d="M22 7.33337V25.6667" stroke="#000000" stroke-width="2" stroke-linecap="round" stroke-linejoin="round"/>
<path d="M22 33V36.6667" stroke="#000000" stroke-width="2" stroke-linecap="round" stroke-linejoin="round"/>
<path d="M29.3333 12.8333C29.3333 13.8058 29.7196 14.7384 30.4073 15.426C31.0949 16.1137 32.0275 16.5 33 16.5C33.9725 16.5 34.9051 16.1137 35.5927 15.426C36.2804 14.7384 36.6667 13.8058 36.6667 12.8333C36.6667 11.8608 36.2804 10.9282 35.5927 10.2406C34.9051 9.55293 33.9725 9.16663 33 9.16663C32.0275 9.16663 31.0949 9.55293 30.4073 10.2406C29.7196 10.9282 29.3333 11.8608 29.3333 12.8333Z" stroke="#000000" stroke-width="2" stroke-linecap="round" stroke-linejoin="round"/>
<path d="M33 7.33337V9.16671" stroke="#000000" stroke-width="2" stroke-linecap="round" stroke-linejoin="round"/>
<path d="M33 16.5V36.6667" stroke="#000000" stroke-width="2" stroke-linecap="round" stroke-linejoin="round"/>
</g>
<defs>
<clipPath id="clip0_46_90">
<rect width="44" height="44" fill="white"/>
</clipPath>
</defs>
</svg>
